<?xml version="1.0" encoding="UTF-8"?>
<svg width="40px" height="40px" viewBox="0 0 255 255" version="1.1" xmlns="http://www.w3.org/2000/svg">
    <!-- Generator: Sketch 52.6 (67491) - http://www.bohemiancoding.com/sketch -->
    <title>SVG/Nodes N</title>
    <desc>Created with Sketch.</desc>
    <defs>
        <linearGradient x1="0%" y1="0%" x2="50%" y2="50%" id="linearGradient-1">
            <stop stop-color="#FF4D79" offset="0%"/>
            <stop stop-color="#B52C6E" offset="100%"/>
        </linearGradient>
    </defs>
    <g id="Nodes-N" stroke="none" stroke-width="1" fill="none" fill-rule="evenodd">
        <path d="M238.350004,50.6487085 C234.522849,41.7929213 226.237998,34.4366263 214.50557,31.9991673 C191.366963,27.1901267 171.770044,43.5120043 166.490452,54.5166453 C161.860221,64.1504116 164.363557,71.5067067 165.461512,82.7466236 C166.437123,92.7474204 164.398064,111.340495 160.053302,119.851211 C155.705402,128.35879 148.342833,136.621682 142.420153,142.186742 C140.456382,144.156786 138.517709,145.910377 136.629227,147.516527 C130.596751,139.818298 126.41825,132.65336 123.516513,126.282087 C121.232768,121.25973 119.73955,116.742431 118.789035,112.871358 C117.220529,106.490674 116.759388,102.309035 116.100615,95.9126664 C115.172059,86.8749325 115.658296,76.6169006 116.771936,67.177629 C117.415023,61.7349118 118.331031,56.5243335 119.375656,51.9317467 C119.852482,49.8738663 120.552036,47.7218755 121.257864,45.5698847 C122.302489,43.0383154 123.071057,40.3122513 123.453773,37.31013 L123.516513,36.6952755 L123.516513,33.9692114 C123.482006,33.4798374 123.409855,32.9810523 123.315744,32.4948153 C122.045254,25.8819923 116.63077,21.0917738 108.741183,20.1412589 C96.7107388,18.695096 80.1755443,28.5923714 75.6174647,38.8629514 C71.2507428,48.6786644 72.4396707,54.9119089 71.1472214,64.8374174 C70.2782688,71.578858 66.2032892,87.8725025 52.3439666,103.545019 C42.2647444,114.94806 27.0847394,120.889562 19.4241541,134.017961 C13.6175434,143.959155 12.284313,163.992118 23.1258293,170.739833 C42.0922087,182.553823 67.6494521,164.377971 64.7163451,136.806765 C63.7532822,127.113396 64.929662,107.57608 74.2748232,91.7812205 C79.6987183,82.3168528 89.3638548,74.0884682 89.3638548,74.0884682 C95.6159213,82.4580184 100.384181,93.0830808 102.162867,101.559289 C103.486686,107.921151 105.281058,114.424179 106.021393,120.804863 C108.286316,139.65831 104.791684,164.923811 101.231174,180.266941 C100.908062,182.375014 97.9655439,190.364985 98.1976829,196.149637 C98.5051101,209.579189 104.088993,221.481015 116.822128,229.207478 C118.996078,230.525023 121.242179,231.566511 123.516513,232.350765 C143.954152,239.399632 167.434693,225.734805 173.48599,205.315988 L173.573827,204.600749 C175.20821,198.888249 175.490542,192.664416 173.953405,186.21158 C169.16005,161.598578 169.812548,142.40947 175.995601,128.079596 C182.175516,113.752858 196.536761,99.978235 218.818963,86.8310143 C228.565661,81.137336 239.291108,73.2226527 240.363967,61.9450916 L240.363967,58.2026353 C240.144376,55.8373277 239.498151,53.3057583 238.350004,50.6487085"
              id="Fill-6" fill="url(#linearGradient-1)"/>
    </g>
</svg>